<svg width="19" height="18" viewBox="0 0 19 18" fill="none" xmlns="http://www.w3.org/2000/svg">
<path d="M18.2808 0.385714C17.7665 -0.128571 16.9951 -0.128571 16.4808 0.385714L9.6665 7.2L2.85222 0.385714C2.33793 -0.128571 1.5665 -0.128571 1.05222 0.385714C0.537932 0.9 0.537932 1.67143 1.05222 2.18571L7.8665 9L1.05222 15.8143C0.537932 16.3286 0.537932 17.1 1.05222 17.6143C1.30936 17.8714 1.5665 18 1.95222 18C2.33793 18 2.59508 17.8714 2.85222 17.6143L9.6665 10.8L16.4808 17.6143C16.7379 17.8714 17.1236 18 17.3808 18C17.6379 18 18.0236 17.8714 18.2808 17.6143C18.7951 17.1 18.7951 16.3286 18.2808 15.8143L11.4665 9L18.2808 2.18571C18.7951 1.67143 18.7951 0.9 18.2808 0.385714Z" fill="#F1F6F9"/>
</svg>
