<svg width="103" height="101" viewBox="0 0 103 101" fill="none" xmlns="http://www.w3.org/2000/svg">
<g clip-path="url(#clip0)">
<path d="M101.419 50.5C101.419 78.3914 78.8103 101 50.9189 101C23.0276 101 0.418945 78.3914 0.418945 50.5C0.418945 22.6086 23.0276 0 50.9189 0C78.8103 0 101.419 22.6086 101.419 50.5Z" fill="#9FC1DC"/>
<path d="M74.5908 67.8594L65.1221 63.125H60.3877L54.0752 69.4375H47.7627L41.4502 63.125H36.7158L27.2471 67.8594C17.7783 71.0156 9.8877 77.2094 9.8877 86.7969V101H91.9502V86.7969C91.9502 77.2094 84.0596 71.0156 74.5908 67.8594Z" fill="#FFF6DC"/>
<path d="M47.7627 69.4375H54.0752L60.3877 63.125H65.1221C65.1221 63.125 60.3877 61.0044 60.3877 58.3906V50.5H41.4502V58.3906C41.4502 61.0044 36.7158 63.125 36.7158 63.125H41.4502L47.7627 69.4375Z" fill="white"/>
<path d="M66.7002 23.6719C71.9293 23.6719 76.1689 27.9115 76.1689 33.1406C76.1689 38.3697 71.9293 42.6094 66.7002 42.6094H35.1377C29.9086 42.6094 25.6689 38.3697 25.6689 33.1406C25.6689 27.9115 29.9086 23.6719 35.1377 23.6719" fill="white"/>
<path d="M71.4346 23.6719C71.4346 14.9551 64.3701 7.89062 55.6533 7.89062V11.0469L46.1846 7.89062C37.4678 7.89062 30.4033 14.9551 30.4033 23.6719H71.4346Z" fill="#D7F0FF"/>
<path d="M36.7158 28.4062V33.1406C36.7158 44.4712 41.4502 55.2344 50.9189 55.2344C60.3877 55.2344 65.1221 44.4712 65.1221 33.1406V28.4062C65.1221 25.7925 63.0015 23.6719 60.3877 23.6719H50.9189L41.4502 18.9375V23.6719C38.8364 23.6719 36.7158 25.7925 36.7158 28.4062Z" fill="white"/>
<path d="M60.3877 50.5V58.3906C60.3877 61.0044 65.1221 63.125 65.1221 63.125L74.5908 67.8594C84.0596 71.0156 91.9502 77.2094 91.9502 86.7969V101" stroke="#637794" stroke-width="3.125" stroke-miterlimit="10" stroke-linejoin="round"/>
<path d="M41.4502 50.5V58.3906C41.4502 61.0044 36.7158 63.125 36.7158 63.125L27.2471 67.8594C17.7783 71.0156 9.8877 77.2094 9.8877 86.7969V101" stroke="#637794" stroke-width="3.125" stroke-miterlimit="10" stroke-linejoin="round"/>
<path d="M25.6689 89.9531V101" stroke="#637794" stroke-width="3.125" stroke-miterlimit="10" stroke-linejoin="round"/>
<path d="M76.1689 89.9531V101" stroke="#637794" stroke-width="3.125" stroke-miterlimit="10" stroke-linejoin="round"/>
<path d="M71.4346 23.6719C71.4346 14.9551 64.3701 7.89062 55.6533 7.89062V11.0469L46.1846 7.89062C37.4678 7.89062 30.4033 14.9551 30.4033 23.6719" stroke="#637794" stroke-width="3.125" stroke-miterlimit="10" stroke-linejoin="round"/>
<path d="M36.7158 28.4062V33.1406C36.7158 44.4712 41.4502 55.2344 50.9189 55.2344C60.3877 55.2344 65.1221 44.4712 65.1221 33.1406V28.4062C65.1221 25.7925 63.0015 23.6719 60.3877 23.6719H50.9189L41.4502 18.9375V23.6719C38.8364 23.6719 36.7158 25.7925 36.7158 28.4062Z" stroke="#637794" stroke-width="3.125" stroke-miterlimit="10" stroke-linejoin="round"/>
<path d="M65.1221 63.125H60.3877L54.0752 69.4375H47.7627L41.4502 63.125H36.7158" stroke="#637794" stroke-width="3.125" stroke-miterlimit="10" stroke-linejoin="round"/>
<path d="M50.9189 82.0625V85.2187" stroke="#637794" stroke-width="3.125" stroke-miterlimit="10" stroke-linejoin="round"/>
<path d="M50.9189 75.75V78.9062" stroke="#637794" stroke-width="3.125" stroke-miterlimit="10" stroke-linejoin="round"/>
<path d="M50.9189 88.375V91.5312" stroke="#637794" stroke-width="3.125" stroke-miterlimit="10" stroke-linejoin="round"/>
<path d="M50.9189 94.6875V97.8437" stroke="#637794" stroke-width="3.125" stroke-miterlimit="10" stroke-linejoin="round"/>
<path d="M58.8096 80.4844H71.4346" stroke="#637794" stroke-width="3.125" stroke-miterlimit="10" stroke-linejoin="round"/>
<path d="M35.1377 42.6094C29.9086 42.6094 25.6689 38.3697 25.6689 33.1406C25.6689 27.9115 29.9086 23.6719 35.1377 23.6719" stroke="#637794" stroke-width="3.125" stroke-miterlimit="10" stroke-linejoin="round"/>
<path d="M66.7002 42.6094C71.9293 42.6094 76.1689 38.3697 76.1689 33.1406C76.1689 27.9115 71.9293 23.6719 66.7002 23.6719" stroke="#637794" stroke-width="3.125" stroke-miterlimit="10" stroke-linejoin="round"/>
<path d="M73.0127 41.0312V45.7656C73.0127 47.5087 71.5995 48.9219 69.8564 48.9219H52.4971C50.754 48.9219 49.3408 47.5087 49.3408 45.7656" stroke="#637794" stroke-width="3.125" stroke-miterlimit="10" stroke-linejoin="round"/>
</g>
<defs>
<clipPath id="clip0">
<rect width="102.01" height="101" fill="white" transform="translate(0.334595)"/>
</clipPath>
</defs>
</svg>
