<svg width="128" height="103" viewBox="0 0 128 103" fill="none" xmlns="http://www.w3.org/2000/svg">
<path d="M84.3394 20.3054H44.3392L18.3391 46.3055V48.3055L26.3392 56.3056V62.3056L62.3393 98.3058C62.3393 98.3058 64.3393 100.306 66.3393 100.306C69.6519 100.306 72.3394 97.6183 72.3394 94.3057C72.3394 92.3057 70.3394 90.3057 70.3394 90.3057L74.3394 94.3057C74.3394 94.3057 76.3394 96.3058 78.3394 96.3058C81.6519 96.3058 84.3394 93.6182 84.3394 90.3057C84.3394 88.3057 82.3394 86.3057 82.3394 86.3057L84.3394 88.3057C84.3394 88.3057 86.3394 90.3057 88.3395 90.3057C91.652 90.3057 94.3395 87.6182 94.3395 84.3057C94.3395 82.3057 92.3395 80.3057 92.3395 80.3057L88.3395 76.3057C88.3395 76.3057 90.3395 78.3057 92.3395 78.3057C95.652 78.3057 98.3395 75.6182 98.3395 72.3056C98.3395 70.3056 96.3395 68.3056 96.3395 68.3056L94.3395 66.3056H96.3395L104.34 58.3056V54.3056L110.34 48.3055V46.3055L84.3394 20.3054Z" fill="white"/>
<path d="M36.3397 74.3056C36.3397 74.3056 34.3396 76.3057 32.3396 76.3057C29.0271 76.3057 26.3396 73.6181 26.3396 70.3056C26.3396 68.3056 28.3396 66.3056 28.3396 66.3056L36.3397 74.3056Z" fill="white"/>
<path d="M44.3396 82.3057C44.3396 82.3057 42.3396 84.3057 40.3396 84.3057C37.0271 84.3057 34.3396 81.6182 34.3396 78.3057C34.3396 76.3057 36.3396 74.3057 36.3396 74.3057L44.3396 82.3057Z" fill="white"/>
<path d="M52.3398 90.3057C52.3398 90.3057 50.3398 92.3057 48.3398 92.3057C45.0272 92.3057 42.3397 89.6182 42.3397 86.3057C42.3397 84.3057 44.3397 82.3057 44.3397 82.3057L52.3398 90.3057Z" fill="white"/>
<path d="M60.3398 98.3058C60.3398 98.3058 58.3398 100.306 56.3398 100.306C53.0272 100.306 50.3397 97.6183 50.3397 94.3057C50.3397 92.3057 52.3397 90.3057 52.3397 90.3057L60.3398 98.3058Z" fill="white"/>
<path d="M2.33936 38.3055L14.3394 50.3055L50.3396 14.3054L38.3395 2.3053" fill="#D7F0FF"/>
<path d="M126.34 38.3055L114.34 50.3055L78.3394 14.3054L90.3394 2.3053" fill="#FFF6DC"/>
<path d="M44.3397 20.3054H84.3394" stroke="#637794" stroke-width="4.00002" stroke-miterlimit="10"/>
<path d="M110.34 48.3055L104.34 54.3056V58.3056L96.3395 66.3056" stroke="#637794" stroke-width="4.00002" stroke-miterlimit="10" stroke-linecap="round"/>
<path d="M70.3394 58.3056L92.3395 80.3057" stroke="#637794" stroke-width="4.00002" stroke-miterlimit="10" stroke-linecap="round"/>
<path d="M96.3394 68.3056C96.3394 68.3056 98.3394 70.3056 98.3394 72.3057C98.3394 75.6182 95.6519 78.3057 92.3394 78.3057C90.3394 78.3057 88.3394 76.3057 88.3394 76.3057" stroke="#637794" stroke-width="4.00002" stroke-miterlimit="10" stroke-linecap="round"/>
<path d="M92.3394 80.3057C92.3394 80.3057 94.3394 82.3057 94.3394 84.3057C94.3394 87.6182 91.6519 90.3057 88.3394 90.3057C86.3394 90.3057 84.3393 88.3057 84.3393 88.3057L62.3392 66.3056" stroke="#637794" stroke-width="4.00002" stroke-miterlimit="10" stroke-linecap="round"/>
<path d="M82.3394 86.3057C82.3394 86.3057 84.3394 88.3057 84.3394 90.3057C84.3394 93.6183 81.6519 96.3058 78.3394 96.3058C76.3393 96.3058 74.3393 94.3058 74.3393 94.3058L54.3392 74.3057" stroke="#637794" stroke-width="4.00002" stroke-miterlimit="10" stroke-linecap="round"/>
<path d="M70.3394 90.3057C70.3394 90.3057 72.3394 92.3058 72.3394 94.3058C72.3394 97.6183 69.6519 100.306 66.3393 100.306C64.3393 100.306 62.3393 98.3058 62.3393 98.3058L26.3392 62.3056V56.3056L18.3391 48.3055" stroke="#637794" stroke-width="4.00002" stroke-miterlimit="10" stroke-linecap="round"/>
<path d="M36.3397 74.3056C36.3397 74.3056 34.3396 76.3057 32.3396 76.3057C29.0271 76.3057 26.3396 73.6181 26.3396 70.3056C26.3396 68.3056 28.3396 66.3056 28.3396 66.3056" stroke="#637794" stroke-width="4.00002" stroke-miterlimit="10" stroke-linecap="round"/>
<path d="M44.3396 82.3057C44.3396 82.3057 42.3396 84.3057 40.3396 84.3057C37.0271 84.3057 34.3396 81.6182 34.3396 78.3057C34.3396 76.3057 36.3396 74.3057 36.3396 74.3057" stroke="#637794" stroke-width="4.00002" stroke-miterlimit="10" stroke-linecap="round"/>
<path d="M52.3398 90.3057C52.3398 90.3057 50.3398 92.3057 48.3398 92.3057C45.0272 92.3057 42.3397 89.6182 42.3397 86.3057C42.3397 84.3057 44.3397 82.3057 44.3397 82.3057" stroke="#637794" stroke-width="4.00002" stroke-miterlimit="10" stroke-linecap="round"/>
<path d="M60.3398 98.3058C60.3398 98.3058 58.3398 100.306 56.3398 100.306C53.0272 100.306 50.3397 97.6183 50.3397 94.3057C50.3397 92.3057 52.3397 90.3057 52.3397 90.3057" stroke="#637794" stroke-width="4.00002" stroke-miterlimit="10" stroke-linecap="round"/>
<path d="M96.3395 68.3056L70.3394 42.3055V30.3054H64.3393L54.3393 40.3055C54.3393 40.3055 52.3393 42.3055 50.3393 42.3055C47.0267 42.3055 44.3392 39.618 44.3392 36.3055C44.3392 34.3055 46.3392 32.3054 46.3392 32.3054L58.3393 20.3054" stroke="#637794" stroke-width="4.00002" stroke-miterlimit="10" stroke-linecap="round"/>
<path d="M86.3394 40.3055C86.3394 43.618 83.6519 46.3055 80.3394 46.3055H74.3394" stroke="#637794" stroke-width="4.00002" stroke-miterlimit="10"/>
<path d="M126.34 38.3055L114.34 50.3055L78.3394 14.3054L90.3394 2.3053" stroke="#637794" stroke-width="4.00002" stroke-miterlimit="10"/>
<path d="M2.33936 38.3055L14.3394 50.3055L50.3396 14.3054L38.3395 2.3053" stroke="#637794" stroke-width="4.00002" stroke-miterlimit="10"/>
<path d="M110.339 34.3055L114.339 38.3055" stroke="#637794" stroke-width="4.00002" stroke-miterlimit="10" stroke-linecap="round"/>
<path d="M14.3395 38.3055L18.3395 34.3055" stroke="#637794" stroke-width="4.00002" stroke-miterlimit="10" stroke-linecap="round"/>
</svg>
