<svg width="290" height="70" viewBox="0 0 290 70" fill="none" xmlns="http://www.w3.org/2000/svg">
<g clip-path="url(#clip0)">
<path d="M40.7584 60.0408C38.2567 61.442 35.6758 62.7404 33.2612 64.2842C30.8466 65.8279 29.7303 65.6063 29.1208 62.5425C26.9357 51.459 24.4815 40.3755 22.1778 29.2921C20.1827 19.6257 20.2144 19.6257 29.6116 16.6253C35.1533 14.8677 40.6951 13.1577 46.1655 11.2973C48.3268 10.561 49.3322 11.131 49.7914 13.324C50.7229 17.8319 51.9715 22.2684 53.5281 26.6004C53.0003 20.4886 52.4726 14.3769 51.9448 8.26516C51.8102 6.38889 50.9948 5.81096 49.0868 6.33347C38.0034 9.22573 26.8935 12.0599 15.7573 14.8361C13.5485 15.3902 13.2239 16.5619 13.7702 18.6203C18.1349 35.0555 22.4443 51.5012 26.6982 67.9575C27.2445 70.0555 27.8937 70.6967 29.8174 69.2084C33.5541 66.3267 37.3779 63.5479 41.1701 60.7216L40.7584 60.0408Z" fill="#245BA7"/>
<path d="M21.9487 57.6579C17.4837 43.9144 13.1453 30.0838 8.45066 16.4432C7.28689 13.0628 8.22107 12.2394 11.2928 11.5269C20.0012 9.50024 28.6305 6.33353 37.331 4.25142C38.5581 3.9585 40.1256 3.63391 41.3448 4.18809C42.8332 4.86893 43.4507 6.4127 43.6723 4.63934C44.2344 0.17429 43.3952 -0.63322 38.9223 0.403876C26.77 3.24599 14.6178 6.17519 2.41808 8.89064C-0.123197 9.45273 -0.503202 10.1969 0.565561 12.5244C7.31856 27.2338 13.9528 41.9985 20.6425 56.7316C20.8931 57.1854 21.1818 57.6171 21.5054 58.0221L21.9487 57.6579Z" fill="#16BDB2"/>
<path d="M82.4084 46.7723L76.7084 36.8368H71.602V46.7723H64.8728V18.5095H79.0438C82.3424 18.5095 84.9101 19.3222 86.7468 20.9478C87.6647 21.7971 88.3839 22.8383 88.8533 23.9974C89.3226 25.1564 89.5306 26.4047 89.4623 27.6533C89.5213 29.5384 89.0049 31.3969 87.9818 32.9813C86.9462 34.4907 85.4316 35.6064 83.683 36.148L90.1748 46.7961L82.4084 46.7723ZM71.602 31.6117H77.9355C79.19 31.6992 80.4336 31.3278 81.4347 30.5667C81.8417 30.2026 82.1618 29.7519 82.3714 29.2477C82.581 28.7434 82.6748 28.1986 82.6459 27.6533C82.6753 27.1115 82.5815 26.57 82.3717 26.0696C82.162 25.5691 81.8416 25.1227 81.4347 24.7637C80.4257 24.0209 79.1852 23.6617 77.9355 23.7504H71.602V31.6117Z" fill="#F2F7FC"/>
<path d="M110.236 43.6847C109.301 44.8062 108.112 45.6883 106.768 46.2577C105.051 46.9904 103.196 47.3415 101.329 47.2869C99.3299 47.3413 97.3493 46.8863 95.574 45.9648C93.9731 45.102 92.6685 43.7781 91.8293 42.1647C90.9207 40.354 90.4721 38.3474 90.5231 36.3221C90.5231 32.8915 91.481 30.1946 93.3969 28.2312C95.3127 26.2679 97.9516 25.2835 101.314 25.2783C104.618 25.2783 107.256 26.2362 109.23 28.152C111.204 30.0679 112.181 32.7913 112.16 36.3221C112.16 36.8763 112.16 37.288 112.16 37.5492H96.9357C96.8892 38.969 97.3214 40.3631 98.1628 41.5076C98.5358 41.9874 99.0173 42.3717 99.5679 42.6291C100.118 42.8865 100.722 43.0095 101.329 42.9881C102.355 43.0608 103.37 42.7505 104.179 42.1172C104.819 41.5743 105.263 40.8377 105.446 40.0193L111.898 40.4547C111.576 41.6356 111.009 42.7359 110.236 43.6847ZM98.2419 30.6458C97.4566 31.492 97.0063 32.5952 96.9752 33.7492H105.684C105.653 32.5952 105.202 31.492 104.417 30.6458C103.577 29.868 102.474 29.4358 101.329 29.4358C100.185 29.4358 99.0819 29.868 98.2419 30.6458Z" fill="#F2F7FC"/>
<path d="M126.584 46.7723H119.103L111.582 25.7929H118.35L122.863 39.9243H123.021L127.463 25.7929H134.152L126.584 46.7723Z" fill="#F2F7FC"/>
<path d="M135.292 18.1136H141.626V23.022H135.292V18.1136ZM135.292 25.7928H141.626V46.7723H135.292V25.7928Z" fill="#F2F7FC"/>
<path d="M163.318 43.6847C162.383 44.8062 161.194 45.6883 159.85 46.2577C158.133 46.9904 156.277 47.3415 154.411 47.2869C152.409 47.3392 150.427 46.8844 148.648 45.9648C147.049 45.1015 145.747 43.7775 144.911 42.1647C144.003 40.354 143.554 38.3474 143.605 36.3221C143.605 32.8915 144.56 30.1946 146.471 28.2312C148.381 26.2679 151.02 25.2835 154.388 25.2783C157.692 25.2783 160.33 26.2362 162.304 28.152C164.278 30.0679 165.255 32.7913 165.234 36.3221C165.234 36.8763 165.234 37.288 165.194 37.5492H150.018C149.971 38.969 150.403 40.3631 151.245 41.5076C151.618 41.9874 152.099 42.3717 152.65 42.6291C153.2 42.8865 153.804 43.0095 154.411 42.9881C155.436 43.0608 156.452 42.7505 157.261 42.1172C157.901 41.5743 158.345 40.8377 158.528 40.0193L164.98 40.4547C164.658 41.6356 164.091 42.7359 163.318 43.6847ZM151.324 30.6458C150.539 31.492 150.088 32.5952 150.057 33.7492H158.766C158.734 32.5952 158.284 31.492 157.499 30.6458C156.659 29.868 155.556 29.4358 154.411 29.4358C153.267 29.4358 152.164 29.868 151.324 30.6458Z" fill="#F2F7FC"/>
<path d="M199.695 25.7929L192.926 46.7723H185.92L182.199 32.9972H182.041L178.32 46.7723H171.472L164.672 25.7929H171.559L175.24 39.8056H175.399L178.843 25.7929H185.77L189.213 39.8056H189.372L193.053 25.7929H199.695Z" fill="#F2F7FC"/>
<path d="M211.982 30.0283C211.268 29.5 210.4 29.2217 209.512 29.2367C208.724 29.2019 207.944 29.4031 207.272 29.8146C207.006 29.9834 206.789 30.2178 206.64 30.4951C206.492 30.7725 206.418 31.0835 206.425 31.3979C206.41 31.6853 206.481 31.9706 206.629 32.2173C206.777 32.464 206.995 32.6611 207.256 32.7834C208.096 33.1764 208.99 33.4432 209.908 33.5751L212.085 33.8917C213.421 34.1085 214.733 34.4532 216.004 34.9209C217.051 35.3202 217.968 35.9993 218.656 36.8843C219.392 37.9271 219.755 39.188 219.685 40.4626C219.738 41.4875 219.508 42.5072 219.02 43.4104C218.533 44.3136 217.807 45.0658 216.922 45.5848C214.708 46.8178 212.194 47.4073 209.662 47.2869C207.22 47.3795 204.802 46.7695 202.696 45.5294C201.821 45.0069 201.073 44.2972 200.505 43.4513C199.937 42.6054 199.563 41.6442 199.41 40.6368L205.308 39.9639C205.371 40.4522 205.531 40.9229 205.778 41.3485C206.026 41.7741 206.356 42.1458 206.749 42.4418C207.63 43.038 208.679 43.335 209.742 43.2889C210.648 43.3384 211.548 43.1031 212.315 42.616C212.618 42.4125 212.865 42.1348 213.031 41.8092C213.198 41.4836 213.278 41.1209 213.265 40.7556C213.261 40.4537 213.171 40.1592 213.006 39.9067C212.84 39.6542 212.606 39.4543 212.33 39.3305C211.449 38.922 210.508 38.6548 209.544 38.5389L207.169 38.1826C205.346 37.9519 203.6 37.3103 202.062 36.3063C200.775 35.3933 200.128 33.9076 200.123 31.8492C200.095 30.5559 200.553 29.2991 201.405 28.3262C202.341 27.3039 203.52 26.5358 204.833 26.0937C206.319 25.5619 207.886 25.294 209.465 25.302C211.73 25.2247 213.97 25.8019 215.917 26.9646C216.736 27.4518 217.44 28.1111 217.98 28.8971C218.52 29.683 218.883 30.5768 219.044 31.5167L213.265 32.1896C213.129 31.3317 212.67 30.5583 211.982 30.0283Z" fill="#F2F7FC"/>
<path d="M222.575 40.2014H229.541V46.7723H222.575V40.2014Z" fill="#F2F7FC"/>
<path d="M249.056 24.1304H240.071V46.7723H233.341V24.1304H224.396V18.5095H249.056V24.1304Z" fill="#F2F7FC"/>
<path d="M258.992 44.3973C258.345 45.3686 257.409 46.1111 256.316 46.519C255.063 47.0471 253.717 47.3164 252.358 47.3107C251.103 47.3271 249.861 47.0705 248.716 46.5586C247.651 46.0973 246.734 45.3524 246.064 44.4052C245.395 43.4333 245.048 42.2756 245.074 41.096C245.011 40.1918 245.171 39.2859 245.539 38.4577C245.908 37.6296 246.474 36.9045 247.188 36.346C248.605 35.3009 250.758 34.5963 253.664 34.2243C255.081 34.105 256.478 33.8071 257.82 33.3376C258.126 33.2422 258.395 33.0565 258.593 32.805C258.791 32.5534 258.908 32.2478 258.928 31.9284C258.947 31.5992 258.884 31.2704 258.746 30.971C258.608 30.6715 258.399 30.4104 258.137 30.2105C257.386 29.7867 256.534 29.5754 255.672 29.5991C254.81 29.6228 253.971 29.8807 253.244 30.345C252.529 30.8666 252.006 31.6096 251.756 32.4588L245.897 31.7463C246.115 30.7739 246.522 29.8539 247.095 29.0389C247.668 28.2238 248.397 27.5297 249.238 26.9963C251.206 25.7894 253.486 25.1892 255.793 25.2704C258.96 25.2704 261.335 25.8958 262.918 27.1308C263.696 27.7371 264.317 28.5205 264.73 29.4156C265.143 30.3108 265.337 31.2918 265.293 32.2767V42.6952C265.293 43.8827 265.293 44.7694 265.388 45.3473C265.431 45.851 265.588 46.3384 265.848 46.7723H259.593C259.18 46.0502 258.972 45.229 258.992 44.3973ZM257.646 37.193C257.068 37.3276 256.142 37.5018 254.875 37.7076C253.977 37.8143 253.122 38.1556 252.397 38.6972C252.099 38.9323 251.861 39.2337 251.7 39.5773C251.539 39.9208 251.461 40.2972 251.471 40.6764C251.457 41.02 251.521 41.3622 251.658 41.6775C251.795 41.9929 252.002 42.2731 252.263 42.4973C252.836 42.9676 253.564 43.2075 254.305 43.1702C255.043 43.1646 255.772 43.0027 256.443 42.6952C257.169 42.3696 257.791 41.8489 258.24 41.191C258.749 40.4467 259.007 39.559 258.976 38.6576V36.6785C258.574 36.9444 258.121 37.125 257.646 37.2089V37.193Z" fill="#F2F7FC"/>
<path d="M282.631 46.7723L278.792 40.2806L274.754 46.7723H267.787L274.873 36.2034L268.302 25.7929H275.229L278.792 31.8492L282.394 25.7929H289.202L282.631 36.0847L289.756 46.7723H282.631Z" fill="#F2F7FC"/>
<path d="M73.1379 53.9212H70.462V60.785H69.2666V53.9212H66.6145V52.8682H73.1379V53.9212Z" fill="#95929A"/>
<path d="M75.6316 55.7024C75.8301 55.4119 76.0991 55.1767 76.4135 55.0188C76.7279 54.8609 77.0772 54.7856 77.4288 54.7999C77.779 54.7961 78.1255 54.8719 78.4421 55.0216C78.7544 55.1777 79.0133 55.4229 79.1863 55.7262C79.3868 56.0861 79.4854 56.494 79.4713 56.9058V60.785H78.3788V57.2462C78.4207 56.8337 78.3047 56.4207 78.0542 56.0903C77.9248 55.9685 77.7713 55.8752 77.6035 55.8165C77.4357 55.7579 77.2575 55.7352 77.0804 55.7499C76.8304 55.7546 76.5876 55.8346 76.3837 55.9795C76.1476 56.154 75.9597 56.3855 75.8375 56.6524C75.6953 56.971 75.625 57.317 75.6316 57.6658V60.785H74.46V52.7574H75.5921V55.7024H75.6316Z" fill="#95929A"/>
<path d="M85.2901 60.3733C84.8159 60.6954 84.2621 60.8806 83.6895 60.9085C83.1168 60.9365 82.5476 60.806 82.0443 60.5316C81.6236 60.2753 81.2877 59.9008 81.0784 59.4549C80.8405 58.9615 80.7212 58.4193 80.7301 57.8716C80.7257 57.3252 80.8419 56.7845 81.0705 56.2882C81.2815 55.8459 81.6136 55.4725 82.0284 55.2115C82.4627 54.9502 82.9626 54.8183 83.4693 54.8315C83.9673 54.8234 84.4587 54.9462 84.8943 55.1878C85.3133 55.4273 85.6521 55.7854 85.8681 56.217C86.1112 56.7086 86.2308 57.2521 86.2164 57.8003C86.2164 57.9587 86.2164 58.0774 86.2164 58.1566H81.8859C81.8811 58.6407 82.0401 59.1122 82.3372 59.4945C82.476 59.6654 82.6527 59.8016 82.8534 59.8923C83.054 59.983 83.273 60.0257 83.493 60.017C83.8659 60.0425 84.2351 59.9298 84.5301 59.7003C84.7599 59.5013 84.9368 59.2483 85.0447 58.9641L86.1847 59.0987C86.0133 59.5997 85.7031 60.0417 85.2901 60.3733ZM82.3768 56.1615C82.1023 56.4704 81.9332 56.8586 81.8938 57.2699H85.0606C85.0212 56.8586 84.8521 56.4704 84.5776 56.1615C84.4354 56.0104 84.2617 55.8924 84.0688 55.8158C83.8759 55.7392 83.6685 55.7058 83.4614 55.7182C83.259 55.7067 83.0566 55.7405 82.8689 55.8172C82.6813 55.8939 82.5132 56.0116 82.3768 56.1615Z" fill="#95929A"/>
<path d="M96.3736 53.9212H93.7136V60.785H92.4944V53.9212H89.8423V52.8682H96.3736V53.9212Z" fill="#95929A"/>
<path d="M100.482 55.1799C100.912 55.4343 101.259 55.8084 101.48 56.2565C101.705 56.7542 101.821 57.2939 101.821 57.8399C101.821 58.3859 101.705 58.9256 101.48 59.4232C101.259 59.8714 100.912 60.2455 100.482 60.4999C100.033 60.7594 99.5208 60.8908 99.0019 60.8799C98.4779 60.8917 97.9606 60.7603 97.5056 60.4999C97.0757 60.2455 96.729 59.8714 96.5081 59.4232C96.2834 58.9256 96.1672 58.3859 96.1672 57.8399C96.1672 57.2939 96.2834 56.7542 96.5081 56.2565C96.729 55.8084 97.0757 55.4343 97.5056 55.1799C97.9606 54.9195 98.4779 54.7881 99.0019 54.7999C99.5208 54.789 100.033 54.9204 100.482 55.1799ZM100.221 59.4232C100.523 58.9502 100.683 58.4009 100.683 57.8399C100.683 57.2789 100.523 56.7296 100.221 56.2565C100.077 56.0724 99.8914 55.9249 99.6796 55.8259C99.4678 55.7268 99.2356 55.6791 99.0019 55.6865C98.7654 55.6752 98.5296 55.7212 98.3146 55.8204C98.0996 55.9196 97.9118 56.0692 97.7669 56.2565C97.4653 56.7296 97.3051 57.2789 97.3051 57.8399C97.3051 58.4009 97.4653 58.9502 97.7669 59.4232C97.9118 59.6106 98.0996 59.7602 98.3146 59.8594C98.5296 59.9586 98.7654 60.0045 99.0019 59.9933C99.2356 60.0007 99.4678 59.953 99.6796 59.8539C99.8914 59.7549 100.077 59.6073 100.221 59.4232Z" fill="#95929A"/>
<path d="M105.082 60.6979C104.794 60.5742 104.548 60.3675 104.377 60.1041H104.33V62.8196H103.198V54.9028H104.275V55.6945H104.322C104.487 55.4052 104.739 55.1752 105.042 55.0374C105.383 54.8752 105.758 54.7965 106.135 54.8078C106.622 54.7945 107.103 54.9248 107.517 55.1824C107.93 55.4399 108.259 55.8135 108.463 56.2566C108.68 56.756 108.793 57.2951 108.793 57.84C108.793 58.3849 108.68 58.9239 108.463 59.4233C108.262 59.8654 107.936 60.2389 107.525 60.4977C107.114 60.7566 106.636 60.8895 106.151 60.88C105.785 60.8997 105.42 60.8375 105.082 60.6979ZM104.71 56.2962C104.411 56.7613 104.251 57.3027 104.251 57.8558C104.251 58.4089 104.411 58.9503 104.71 59.4154C104.858 59.6003 105.046 59.7496 105.26 59.8521C105.474 59.9547 105.708 60.0079 105.945 60.0079C106.182 60.0079 106.416 59.9547 106.63 59.8521C106.844 59.7496 107.032 59.6003 107.18 59.4154C107.482 58.9424 107.642 58.393 107.642 57.832C107.642 57.271 107.482 56.7217 107.18 56.2487C107.032 56.0638 106.844 55.9145 106.63 55.812C106.416 55.7094 106.182 55.6562 105.945 55.6562C105.708 55.6562 105.474 55.7094 105.26 55.812C105.046 55.9145 104.858 56.0638 104.71 56.2487V56.2962Z" fill="#95929A"/>
<path d="M118.936 53.9212H116.276V60.785H115.057V53.9212H112.421V52.8682H118.944L118.936 53.9212Z" fill="#95929A"/>
<path d="M124.169 59.8508V60.785C124.08 60.7903 123.99 60.7903 123.9 60.785C123.771 60.7929 123.641 60.7929 123.512 60.785C123.282 60.8203 123.047 60.7662 122.856 60.6337C122.664 60.5011 122.531 60.3003 122.483 60.0725H122.444C122.245 60.3455 121.969 60.5524 121.652 60.6662C121.31 60.7932 120.948 60.8575 120.583 60.8562C120.257 60.8598 119.934 60.7866 119.641 60.6425C119.362 60.5037 119.124 60.2934 118.952 60.0329C118.78 59.755 118.692 59.4334 118.699 59.1066C118.679 58.853 118.723 58.5986 118.827 58.3663C118.931 58.1341 119.091 57.9314 119.293 57.7766C119.843 57.4478 120.465 57.2576 121.106 57.2224C121.47 57.2093 121.829 57.1316 122.166 56.9929C122.25 56.9526 122.32 56.8896 122.369 56.8111C122.418 56.7327 122.444 56.642 122.444 56.5495C122.444 55.9637 122.064 55.6708 121.296 55.6708C120.999 55.6661 120.708 55.7547 120.464 55.9241C120.211 56.1005 120.028 56.3615 119.95 56.6604L118.913 56.4149C119.028 55.9147 119.327 55.4764 119.752 55.1878C120.22 54.8785 120.774 54.7235 121.335 54.7445C121.946 54.6885 122.557 54.8636 123.045 55.2353C123.223 55.3988 123.363 55.5987 123.456 55.8215C123.549 56.0443 123.592 56.2846 123.584 56.5258V59.4946C123.584 59.7241 123.679 59.8429 123.861 59.8429C123.963 59.8543 124.066 59.857 124.169 59.8508ZM121.921 57.9904C121.668 58.0458 121.351 58.1012 120.955 58.1566C120.668 58.1855 120.394 58.2922 120.163 58.4654C120.056 58.5453 119.971 58.6511 119.915 58.7729C119.86 58.8947 119.836 59.0286 119.847 59.1621C119.839 59.2798 119.858 59.3978 119.902 59.5074C119.946 59.617 120.013 59.7154 120.1 59.7954C120.29 59.9538 120.534 60.0331 120.781 60.0171C121.054 60.0184 121.324 59.9617 121.573 59.8508C121.821 59.7386 122.037 59.5641 122.198 59.3441C122.371 59.0875 122.457 58.7823 122.444 58.4733V57.7924C122.292 57.9076 122.111 57.9764 121.921 57.9904Z" fill="#95929A"/>
<path d="M128.603 60.785L127.249 58.6395L125.879 60.785H124.629L126.584 57.7924L124.676 54.8949H125.99L127.273 57.0008L128.571 54.9345H129.838L127.93 57.7924L129.933 60.7691L128.603 60.785Z" fill="#95929A"/>
<path d="M140.288 52.8682V60.785H139.069V57.2779H135.039V60.785H133.796V52.8682H135.015V56.2566H139.045V52.8682H140.288Z" fill="#95929A"/>
<path d="M146.281 60.3733C145.807 60.6954 145.253 60.8806 144.68 60.9085C144.108 60.9365 143.538 60.8061 143.035 60.5316C142.616 60.2731 142.281 59.8993 142.069 59.4549C141.834 58.9608 141.717 58.4187 141.729 57.8716C141.722 57.3258 141.835 56.7852 142.061 56.2882C142.272 55.8459 142.604 55.4725 143.019 55.2115C143.454 54.9514 143.954 54.8197 144.46 54.8315C144.958 54.8215 145.45 54.9445 145.885 55.1878C146.305 55.429 146.646 55.7864 146.867 56.217C147.106 56.7098 147.226 57.2524 147.215 57.8003C147.215 57.9587 147.215 58.0774 147.215 58.1566H142.885C142.88 58.6407 143.039 59.1122 143.336 59.4945C143.476 59.6645 143.652 59.8 143.853 59.8906C144.053 59.9812 144.272 60.0245 144.492 60.017C144.865 60.0441 145.235 59.9312 145.529 59.7004C145.761 59.5034 145.938 59.2498 146.043 58.9641L147.183 59.0987C147.013 59.6021 146.699 60.045 146.281 60.3733ZM143.368 56.1616C143.093 56.4693 142.926 56.8585 142.893 57.2699H146.059C146.02 56.8586 145.851 56.4704 145.576 56.1616C145.434 56.0104 145.26 55.8924 145.067 55.8158C144.875 55.7392 144.667 55.7059 144.46 55.7182C144.256 55.7067 144.053 55.7404 143.864 55.8171C143.675 55.8938 143.505 56.0114 143.368 56.1616Z" fill="#95929A"/>
<path d="M148.585 52.7574H149.717V60.785H148.585V52.7574Z" fill="#95929A"/>
<path d="M153.327 60.6979C153.038 60.5742 152.793 60.3675 152.622 60.1041H152.575V62.8196H151.443V54.9028H152.519V55.6945H152.567C152.732 55.4052 152.984 55.1752 153.287 55.0374C153.628 54.8752 154.003 54.7965 154.38 54.8078C154.865 54.7983 155.343 54.9312 155.754 55.1901C156.165 55.449 156.491 55.8225 156.691 56.2645C156.909 56.7639 157.022 57.303 157.022 57.8479C157.022 58.3928 156.909 58.9318 156.691 59.4312C156.494 59.8777 156.17 60.2562 155.758 60.5195C155.347 60.7827 154.868 60.9191 154.38 60.9117C154.017 60.9191 153.658 60.8461 153.327 60.6979ZM152.963 56.2962C152.658 56.7591 152.495 57.3014 152.495 57.8558C152.495 58.4102 152.658 58.9525 152.963 59.4154C153.105 59.6024 153.29 59.7525 153.502 59.8531C153.714 59.9537 153.947 60.0018 154.182 59.9933C154.419 60.0033 154.656 59.9568 154.872 59.8577C155.088 59.7586 155.277 59.6098 155.425 59.4233C155.726 58.9503 155.887 58.401 155.887 57.84C155.887 57.279 155.726 56.7296 155.425 56.2566C155.277 56.0701 155.088 55.9213 154.872 55.8222C154.656 55.7231 154.419 55.6766 154.182 55.6866C153.944 55.6818 153.709 55.7347 153.497 55.8409C153.285 55.9471 153.101 56.1034 152.963 56.2962Z" fill="#95929A"/>
<path d="M167.411 59.5341C167.109 59.9612 166.714 60.3133 166.255 60.5633C165.73 60.8358 165.144 60.9719 164.553 60.9592C163.869 60.9724 163.195 60.7971 162.605 60.4525C162.037 60.1099 161.58 59.6093 161.291 59.0116C160.96 58.3261 160.798 57.5717 160.816 56.8108C160.799 56.0577 160.962 55.3114 161.291 54.6337C161.582 54.0376 162.038 53.5375 162.605 53.1928C163.198 52.8544 163.87 52.6821 164.553 52.6941C165.099 52.6778 165.641 52.7889 166.136 53.0187C166.558 53.2045 166.937 53.4738 167.252 53.8103C167.529 54.1142 167.744 54.4692 167.886 54.8553L166.706 55.1166C166.544 54.7038 166.27 54.3445 165.914 54.0795C165.53 53.8033 165.065 53.6614 164.592 53.6757C164.248 53.6564 163.904 53.718 163.588 53.8555C163.272 53.9929 162.992 54.2025 162.771 54.4674C162.287 55.1223 162.049 55.9266 162.099 56.7395C162.048 57.5624 162.286 58.3772 162.771 59.0433C162.993 59.3073 163.273 59.5162 163.589 59.6536C163.905 59.7909 164.248 59.8531 164.592 59.835C165.109 59.8702 165.619 59.7059 166.017 59.3758C166.407 59.0042 166.681 58.529 166.809 58.0062L168.028 58.1962C167.915 58.6793 167.705 59.1345 167.411 59.5341Z" fill="#95929A"/>
<path d="M173.38 55.1799C173.81 55.4343 174.157 55.8084 174.377 56.2565C174.602 56.7542 174.718 57.2939 174.718 57.8399C174.718 58.3859 174.602 58.9256 174.377 59.4232C174.162 59.8831 173.815 60.2687 173.38 60.5316C172.93 60.7911 172.418 60.9225 171.9 60.9116C171.376 60.9234 170.858 60.792 170.403 60.5316C169.979 60.2748 169.638 59.9009 169.422 59.4549C169.197 58.9573 169.081 58.4176 169.081 57.8716C169.081 57.3256 169.197 56.7858 169.422 56.2882C169.643 55.8401 169.989 55.466 170.419 55.2115C170.874 54.9511 171.391 54.8198 171.915 54.8315C172.426 54.8139 172.932 54.9342 173.38 55.1799ZM173.119 59.4232C173.42 58.9502 173.581 58.4009 173.581 57.8399C173.581 57.2789 173.42 56.7296 173.119 56.2565C172.975 56.0724 172.789 55.9249 172.577 55.8259C172.365 55.7268 172.133 55.6791 171.9 55.6865C171.663 55.6752 171.427 55.7212 171.212 55.8204C170.997 55.9196 170.809 56.0692 170.665 56.2565C170.363 56.7296 170.203 57.2789 170.203 57.8399C170.203 58.4009 170.363 58.9502 170.665 59.4232C170.809 59.6106 170.997 59.7602 171.212 59.8594C171.427 59.9586 171.663 60.0045 171.9 59.9933C172.135 60.002 172.368 59.9548 172.582 59.8558C172.795 59.7567 172.982 59.6085 173.127 59.4232H173.119Z" fill="#95929A"/>
<path d="M183.545 55.0216C183.847 55.1833 184.097 55.4277 184.266 55.7261C184.458 56.0888 184.554 56.4952 184.543 56.9057V60.785H183.411V57.2462C183.446 56.8403 183.339 56.4347 183.11 56.0982C182.997 55.9779 182.859 55.8842 182.706 55.8239C182.552 55.7637 182.387 55.7384 182.223 55.7499C181.988 55.7502 181.759 55.822 181.566 55.9557C181.347 56.1103 181.176 56.3247 181.075 56.5732C180.947 56.8844 180.885 57.2186 180.893 57.5549V60.785H179.753V57.2462C179.791 56.8387 179.688 56.4305 179.46 56.0903C179.252 55.8877 178.98 55.7642 178.691 55.7411C178.402 55.7179 178.114 55.7967 177.877 55.9637C177.657 56.1182 177.487 56.3326 177.386 56.5812C177.257 56.8949 177.195 57.2319 177.204 57.5708V60.785H176.072V54.9266H177.148V55.7182H177.196C177.376 55.4261 177.631 55.1871 177.935 55.0257C178.238 54.8644 178.578 54.7864 178.922 54.7999C179.266 54.7966 179.606 54.8782 179.911 55.0374C180.217 55.1992 180.465 55.4506 180.624 55.7578C180.858 55.4596 181.152 55.2141 181.487 55.0374C181.827 54.8724 182.201 54.791 182.579 54.7999C182.914 54.7959 183.245 54.8719 183.545 55.0216Z" fill="#95929A"/>
<path d="M188.034 60.6979C187.748 60.5729 187.506 60.3663 187.337 60.1041H187.29V62.8196H186.158V54.9028H187.234V55.6945H187.274C187.444 55.4063 187.698 55.1769 188.002 55.0374C188.343 54.8752 188.717 54.7965 189.095 54.8078C189.578 54.8008 190.054 54.9327 190.464 55.1878C190.874 55.4498 191.201 55.8233 191.406 56.2645C191.624 56.7639 191.737 57.303 191.737 57.8479C191.737 58.3928 191.624 58.9318 191.406 59.4312C191.201 59.8724 190.874 60.246 190.464 60.5079C190.101 60.7248 189.691 60.8528 189.269 60.8817C188.847 60.9106 188.424 60.8395 188.034 60.6742V60.6979ZM187.67 56.2962C187.37 56.7613 187.211 57.3027 187.211 57.8558C187.211 58.4089 187.37 58.9503 187.67 59.4154C187.813 59.6025 188 59.7526 188.213 59.8532C188.427 59.9537 188.661 60.0017 188.897 59.9933C189.134 60.0026 189.37 59.9559 189.586 59.8568C189.802 59.7578 189.992 59.6093 190.14 59.4233C190.441 58.9503 190.602 58.401 190.602 57.84C190.602 57.279 190.441 56.7296 190.14 56.2566C189.992 56.0706 189.802 55.9221 189.586 55.8231C189.37 55.724 189.134 55.6773 188.897 55.6866C188.658 55.6818 188.422 55.7347 188.208 55.8409C187.995 55.947 187.81 56.1032 187.67 56.2962Z" fill="#95929A"/>
<path d="M198.207 59.8508V60.785C198.117 60.7903 198.027 60.7903 197.938 60.785H197.55C197.32 60.8203 197.085 60.7662 196.893 60.6337C196.702 60.5011 196.569 60.3003 196.521 60.0725H196.473C196.276 60.3465 196 60.5537 195.681 60.6662C195.34 60.7932 194.977 60.8575 194.613 60.8562C194.286 60.8598 193.964 60.7866 193.671 60.6425C193.391 60.5037 193.154 60.2934 192.982 60.0329C192.81 59.755 192.722 59.4334 192.729 59.1066C192.709 58.853 192.753 58.5986 192.857 58.3663C192.96 58.1341 193.12 57.9314 193.322 57.7766C193.873 57.4478 194.495 57.2576 195.135 57.2224C195.497 57.2106 195.854 57.1328 196.188 56.9929C196.273 56.9545 196.346 56.8922 196.396 56.8135C196.447 56.7348 196.474 56.6431 196.473 56.5495C196.473 55.9637 196.085 55.6708 195.317 55.6708C195.034 55.6761 194.759 55.7641 194.526 55.9241C194.276 56.1033 194.097 56.3636 194.019 56.6604L192.974 56.4149C193.092 55.9138 193.394 55.4755 193.821 55.1878C194.29 54.8785 194.843 54.7235 195.404 54.7445C196.016 54.6885 196.626 54.8636 197.114 55.2353C197.292 55.3988 197.432 55.5987 197.525 55.8215C197.618 56.0443 197.662 56.2846 197.653 56.5258V59.4946C197.653 59.7241 197.748 59.8429 197.93 59.8429C198.022 59.8526 198.114 59.8553 198.207 59.8508ZM195.966 57.9904C195.713 58.0458 195.396 58.1012 195.001 58.1566C194.714 58.1855 194.44 58.2922 194.209 58.4654C194.102 58.5453 194.016 58.6511 193.961 58.7729C193.905 58.8947 193.882 59.0286 193.892 59.1621C193.884 59.2792 193.901 59.3968 193.944 59.5064C193.986 59.6159 194.052 59.7146 194.138 59.7954C194.329 59.9524 194.572 60.0315 194.819 60.0171C195.091 60.0199 195.362 59.9631 195.61 59.8508C195.862 59.7398 196.08 59.5651 196.244 59.3441C196.416 59.0875 196.502 58.7823 196.489 58.4733V57.7924C196.338 57.9076 196.156 57.9764 195.966 57.9904Z" fill="#95929A"/>
<path d="M200.337 55.7024C200.536 55.409 200.807 55.1719 201.125 55.0138C201.442 54.8558 201.795 54.7821 202.149 54.7999C202.505 54.7959 202.856 54.8716 203.179 55.0216C203.503 55.1737 203.778 55.4154 203.97 55.7183C204.172 56.0807 204.27 56.4913 204.255 56.9058V60.785H203.123V57.2462C203.164 56.8351 203.051 56.4235 202.807 56.0903C202.676 55.9678 202.521 55.8742 202.352 55.8156C202.183 55.7569 202.003 55.7345 201.825 55.7499C201.574 55.7512 201.329 55.8255 201.12 55.9637C200.885 56.1127 200.697 56.3273 200.582 56.5812C200.437 56.8906 200.367 57.2294 200.376 57.5708V60.785H199.244V54.9266H200.297V55.7183L200.337 55.7024Z" fill="#95929A"/>
<path d="M205.839 52.7574H206.971V53.9845H205.839V52.7574ZM205.839 54.9266H206.971V60.785H205.839V54.9266Z" fill="#95929A"/>
<path d="M212.837 60.3733C212.363 60.6954 211.809 60.8806 211.236 60.9085C210.664 60.9365 210.094 60.806 209.591 60.5316C209.17 60.2753 208.835 59.9008 208.625 59.4549C208.387 58.9615 208.268 58.4193 208.277 57.8716C208.273 57.3252 208.389 56.7845 208.617 56.2882C208.828 55.8459 209.161 55.4725 209.575 55.2115C210.01 54.9502 210.509 54.8183 211.016 54.8315C211.514 54.8234 212.006 54.9462 212.441 55.1878C212.86 55.4273 213.199 55.7854 213.415 56.217C213.658 56.7086 213.778 57.2521 213.763 57.8003C213.763 57.9587 213.763 58.0774 213.763 58.1566H209.433C209.428 58.6407 209.587 59.1122 209.884 59.4945C210.023 59.6654 210.2 59.8016 210.4 59.8923C210.601 59.983 210.82 60.0257 211.04 60.017C211.413 60.0425 211.782 59.9298 212.077 59.7003C212.307 59.5013 212.484 59.2483 212.592 58.9641L213.732 59.0987C213.56 59.5997 213.25 60.0417 212.837 60.3733ZM209.924 56.1615C209.649 56.4704 209.48 56.8586 209.441 57.2699H212.607C212.568 56.8586 212.399 56.4704 212.125 56.1615C211.982 56.0104 211.809 55.8924 211.616 55.8158C211.423 55.7392 211.215 55.7058 211.008 55.7182C210.806 55.7067 210.603 55.7405 210.416 55.8172C210.228 55.8939 210.06 56.0116 209.924 56.1615Z" fill="#95929A"/>
<path d="M218.228 55.9241C217.972 55.7493 217.668 55.658 217.357 55.6628C217.061 55.6449 216.767 55.7226 216.518 55.8845C216.415 55.9533 216.331 56.0479 216.276 56.159C216.22 56.2701 216.195 56.3938 216.202 56.5178C216.197 56.6204 216.222 56.7221 216.274 56.8107C216.326 56.8992 216.403 56.9707 216.495 57.0166C216.766 57.1419 217.054 57.2272 217.35 57.2699L217.92 57.357C218.434 57.4264 218.928 57.6045 219.368 57.8795C219.547 58.0217 219.688 58.2061 219.778 58.4162C219.868 58.6262 219.904 58.8553 219.883 59.0829C219.891 59.3482 219.832 59.6112 219.711 59.8477C219.591 60.0843 219.413 60.2868 219.194 60.4366C218.662 60.7713 218.041 60.9369 217.413 60.9116C216.781 60.941 216.156 60.7661 215.632 60.4129C215.186 60.0972 214.882 59.6198 214.785 59.0829L215.83 58.8612C215.892 59.2251 216.09 59.5517 216.384 59.7751C216.678 59.9985 217.046 60.1019 217.413 60.0645C217.743 60.0797 218.07 59.9911 218.347 59.8112C218.462 59.7375 218.556 59.6354 218.62 59.5147C218.684 59.394 218.715 59.2589 218.711 59.1225C218.718 59.0115 218.691 58.9011 218.635 58.8052C218.578 58.7094 218.495 58.6325 218.395 58.5841C218.107 58.4379 217.796 58.3416 217.476 58.2991L216.89 58.1962C216.405 58.1327 215.94 57.9623 215.529 57.6974C215.354 57.5594 215.217 57.3799 215.13 57.1752C215.043 56.9705 215.008 56.7472 215.03 56.5258C215.025 56.2032 215.128 55.8882 215.323 55.6312C215.527 55.3601 215.8 55.1495 216.115 55.0216C216.494 54.8664 216.901 54.791 217.31 54.7999C217.701 54.7938 218.09 54.8693 218.45 55.0216C218.774 55.1594 219.063 55.3677 219.297 55.6312C219.502 55.8542 219.644 56.1273 219.709 56.4228L218.664 56.6445C218.611 56.3593 218.457 56.103 218.228 55.9241Z" fill="#95929A"/>
<path d="M36.8396 52.1082L29.9836 44.7614L31.567 42.2043L36.5387 45.3235L48.5801 24.9616L49.6726 27.0041L38.5892 51.7044C38.5379 51.858 38.4517 51.9976 38.3373 52.1122C38.2228 52.2268 38.0833 52.3132 37.9298 52.3646C37.7763 52.4161 37.6129 52.4311 37.4525 52.4086C37.2922 52.3861 37.1392 52.3266 37.0058 52.2349C36.9461 52.1986 36.8903 52.1562 36.8396 52.1082Z" fill="#FF7E18"/>
</g>
<defs>
<clipPath id="clip0">
<rect width="289.746" height="70" fill="white" transform="translate(0.00292969)"/>
</clipPath>
</defs>
</svg>
