<svg width="24" height="24" viewBox="0 0 24 24" fill="none" xmlns="http://www.w3.org/2000/svg">
<g clip-path="url(#clip0)">
<path d="M14.507 15.487L12.173 17.787C10.9551 17.054 9.82367 16.1862 8.80001 15.2C7.81499 14.1762 6.94698 13.0459 6.21201 11.83L8.51201 9.496C8.65164 9.35464 8.746 9.1749 8.78304 8.9797C8.82009 8.78449 8.79815 8.58268 8.72001 8.4L6.32001 2.81C6.22564 2.59044 6.05575 2.41194 5.84112 2.30683C5.6265 2.20172 5.38133 2.17695 5.15001 2.237L0.750012 3.4C0.529992 3.45669 0.335835 3.58661 0.199512 3.76837C0.0631887 3.95014 -0.00717319 4.17291 1.22178e-05 4.4C0.27982 9.5138 2.40655 14.3521 5.98501 18.016C9.65008 21.5955 14.4905 23.722 19.606 24C19.833 24.0072 20.0556 23.937 20.2374 23.8009C20.4191 23.6648 20.5491 23.4708 20.606 23.251L21.768 18.851C21.8295 18.6191 21.8055 18.3728 21.7005 18.1571C21.5955 17.9414 21.4164 17.7707 21.196 17.676L15.606 15.276C15.4227 15.1976 15.2201 15.1758 15.0242 15.2134C14.8284 15.251 14.6483 15.3463 14.507 15.487Z" fill="white"/>
<path d="M24 10H22C21.9976 7.879 21.154 5.84555 19.6542 4.34578C18.1544 2.846 16.121 2.00238 14 2V0C16.6513 0.0029116 19.1931 1.05742 21.0679 2.93215C22.9426 4.80688 23.9971 7.34873 24 10Z" fill="white"/>
<path d="M20 10H18C18 8.93913 17.5786 7.92172 16.8284 7.17157C16.0783 6.42143 15.0609 6 14 6V4C15.5908 4.00159 17.116 4.63424 18.2409 5.75911C19.3658 6.88399 19.9984 8.40919 20 10Z" fill="white"/>
</g>
<defs>
<clipPath id="clip0">
<rect width="24" height="24" fill="white"/>
</clipPath>
</defs>
</svg>
