<svg width="21" height="24" viewBox="0 0 21 24" fill="none" xmlns="http://www.w3.org/2000/svg">
<path d="M12.1625 0H2.60624C2.37583 0 2.15486 0.105357 1.99194 0.292893C1.82902 0.48043 1.73749 0.734784 1.73749 1V23C1.73749 23.2652 1.82902 23.5196 1.99194 23.7071C2.15486 23.8946 2.37583 24 2.60624 24H18.2437C18.4741 24 18.6951 23.8946 18.858 23.7071C19.021 23.5196 19.1125 23.2652 19.1125 23V8H13.0312C12.8008 8 12.5799 7.89464 12.4169 7.70711C12.254 7.51957 12.1625 7.26522 12.1625 7V0ZM4.34374 17H16.5062V19H4.34374V17ZM4.34374 12H16.5062V14H4.34374V12ZM9.55624 9H4.34374V7H9.55624V9Z" fill="#0B305E"/>
<path d="M18.6034 6H13.9V0.585999L18.6034 6Z" fill="#0B305E"/>
</svg>
